<svg width="19" height="19" viewBox="0 0 19 19" fill="none" xmlns="http://www.w3.org/2000/svg">
<path d="M0.880005 1.22012C0.880005 1.06099 0.943219 0.908375 1.05574 0.795853C1.16826 0.683331 1.32087 0.620117 1.48 0.620117H3.28C3.41387 0.620165 3.54387 0.664978 3.64933 0.747426C3.75479 0.829874 3.82965 0.945221 3.862 1.07512L4.348 3.02012H18.28C18.3681 3.02009 18.4552 3.03948 18.535 3.0769C18.6148 3.11433 18.6853 3.16887 18.7416 3.23665C18.798 3.30443 18.8387 3.38378 18.8609 3.46907C18.883 3.55436 18.8862 3.64348 18.87 3.73012L17.07 13.3301C17.0443 13.4678 16.9713 13.5922 16.8635 13.6817C16.7558 13.7712 16.6201 13.8202 16.48 13.8201H5.68C5.53993 13.8202 5.40425 13.7712 5.29649 13.6817C5.18874 13.5922 5.11569 13.4678 5.09 13.3301L3.293 3.75012L2.813 1.82112H1.48C1.32087 1.82112 1.16826 1.7579 1.05574 1.64538C0.943219 1.53286 0.880005 1.38025 0.880005 1.22112V1.22012ZM4.60201 4.22012L6.17801 12.6201H15.982L17.558 4.22012H4.60201ZM6.88 13.8201C6.56483 13.8201 6.25275 13.8822 5.96156 14.0028C5.67038 14.1234 5.40581 14.3002 5.18295 14.5231C4.96009 14.7459 4.78331 15.0105 4.66269 15.3017C4.54208 15.5929 4.48 15.9049 4.48 16.2201C4.48 16.5353 4.54208 16.8474 4.66269 17.1386C4.78331 17.4297 4.96009 17.6943 5.18295 17.9172C5.40581 18.14 5.67038 18.3168 5.96156 18.4374C6.25275 18.558 6.56483 18.6201 6.88 18.6201C7.51652 18.6201 8.12697 18.3673 8.57706 17.9172C9.02715 17.4671 9.28 16.8566 9.28 16.2201C9.28 15.5836 9.02715 14.9731 8.57706 14.5231C8.12697 14.073 7.51652 13.8201 6.88 13.8201ZM15.28 13.8201C14.9648 13.8201 14.6526 13.8822 14.3614 14.0028C14.0701 14.1235 13.8055 14.3003 13.5826 14.5232C13.3597 14.7461 13.1829 15.0107 13.0622 15.302C12.9416 15.5932 12.8795 15.9054 12.8795 16.2206C12.8795 16.5359 12.9416 16.848 13.0622 17.1392C13.1829 17.4305 13.3597 17.6951 13.5826 17.918C13.8055 18.1409 14.0701 18.3178 14.3614 18.4384C14.6526 18.559 14.9648 18.6211 15.28 18.6211C15.9165 18.6211 16.527 18.3683 16.9771 17.9182C17.4271 17.4681 17.68 16.8576 17.68 16.2211C17.68 15.5846 17.4271 14.9741 16.9771 14.5241C16.527 14.074 15.9165 13.8211 15.28 13.8211V13.8201ZM6.88 15.0201C7.03759 15.0201 7.19363 15.0512 7.33922 15.1115C7.48482 15.1718 7.6171 15.2602 7.72853 15.3716C7.83996 15.483 7.92835 15.6153 7.98866 15.7609C8.04897 15.9065 8.08 16.0625 8.08 16.2201C8.08 16.3777 8.04897 16.5337 7.98866 16.6793C7.92835 16.8249 7.83996 16.9572 7.72853 17.0686C7.6171 17.1801 7.48482 17.2685 7.33922 17.3288C7.19363 17.3891 7.03759 17.4201 6.88 17.4201C6.56175 17.4201 6.25652 17.2937 6.03148 17.0686C5.80643 16.8436 5.68 16.5384 5.68 16.2201C5.68 15.9019 5.80643 15.5966 6.03148 15.3716C6.25652 15.1465 6.56175 15.0201 6.88 15.0201ZM15.28 15.0201C15.4376 15.0201 15.5936 15.0512 15.7392 15.1115C15.8848 15.1718 16.0171 15.2602 16.1285 15.3716C16.24 15.483 16.3284 15.6153 16.3887 15.7609C16.449 15.9065 16.48 16.0625 16.48 16.2201C16.48 16.3777 16.449 16.5337 16.3887 16.6793C16.3284 16.8249 16.24 16.9572 16.1285 17.0686C16.0171 17.1801 15.8848 17.2685 15.7392 17.3288C15.5936 17.3891 15.4376 17.4201 15.28 17.4201C14.9617 17.4201 14.6565 17.2937 14.4315 17.0686C14.2064 16.8436 14.08 16.5384 14.08 16.2201C14.08 15.9019 14.2064 15.5966 14.4315 15.3716C14.6565 15.1465 14.9617 15.0201 15.28 15.0201Z" fill="white"/>
</svg>
