<svg width="72" height="36" viewBox="0 0 72 36" fill="none" xmlns="http://www.w3.org/2000/svg">
<path d="M33.5177 12.8269C33.272 14.441 33.2966 15.1637 33.3457 16.6332C33.5423 21.9814 26.0474 24.246 23.1723 19.1387C22.4106 17.8137 21.9928 16.1273 21.7962 14.3205C21.9437 14.2964 22.0911 14.2964 22.2631 14.2723C22.4843 14.2482 22.73 14.2241 22.9512 14.2001C23.1232 15.8623 23.5164 17.4041 24.1798 18.5846C26.4897 22.656 32.3628 20.8491 32.2153 16.6814C32.1662 15.2601 32.1416 14.4169 32.3382 12.8751L33.5177 12.8269ZM21.7225 12.9955C21.5259 9.93596 22.1894 5.76823 23.3443 2.9496L24.401 3.35914C23.2461 6.20187 22.73 9.88778 22.8529 12.9473L21.7225 12.9955ZM28.7505 11.526C28.7259 10.731 28.7259 10.0323 29.0208 9.2855C29.93 6.9246 33.1491 6.85232 33.8372 9.40596C34.0092 10.0805 33.9846 10.8032 33.788 11.4778C33.3949 11.4778 32.9771 11.4778 32.5839 11.4778C32.8051 10.9237 32.8788 10.2732 32.7314 9.69505C32.3382 8.17732 30.6181 8.37005 30.102 9.69505C29.8809 10.2973 29.8809 10.8755 29.9054 11.5019C29.5123 11.5019 29.1437 11.5019 28.7505 11.526ZM26.6618 11.6223C26.4406 8.2496 27.4972 3.7446 29.1191 0.757324L30.1266 1.28732C28.6276 4.08187 27.5955 8.39414 27.8167 11.5501C27.4235 11.5741 27.0549 11.5982 26.6618 11.6223ZM24.1553 11.7669C24.0815 8.75551 24.9662 4.85278 25.9737 1.98596L27.0549 2.34732C26.0966 4.97323 25.2365 8.85187 25.2856 11.6705C24.917 11.7187 24.5484 11.7428 24.1553 11.7669Z" fill="#AF9778"/>
<path d="M15.5546 13.4051C16.6358 13.2364 17.7416 13.0678 18.8228 12.9232C19.9286 12.7787 21.0099 12.6582 22.0911 12.5378C23.1723 12.4414 24.2781 12.3451 25.3839 12.2728C26.5143 12.2005 27.6201 12.1523 28.6767 12.1042C29.7334 12.056 30.8392 12.056 31.9696 12.056C32.9771 12.056 33.96 12.056 34.943 12.0801L34.6235 12.6342L36.3928 16.296L34.8938 13.2123C33.9109 13.1882 32.9279 13.1642 31.9696 13.1882C30.9129 13.1882 29.8317 13.2123 28.7013 13.2605C27.5709 13.3087 26.4897 13.3569 25.4331 13.4292C24.3518 13.5014 23.2706 13.5978 22.1894 13.6942C21.1082 13.7905 20.0269 13.9351 18.9457 14.0555C17.8645 14.2001 16.7832 14.3687 15.7266 14.5373L15.5546 13.4051ZM50.3259 10.5864L50.5962 10.6346C51.1368 10.731 51.702 10.8273 52.2672 10.9478C52.8324 11.0442 53.373 11.1646 53.9382 11.2851C54.5034 11.4055 55.044 11.526 55.6092 11.6464L55.3634 12.7546C54.8228 12.6342 54.2576 12.5137 53.717 12.3932C53.1764 12.2728 52.6112 12.1764 52.0706 12.056C51.53 11.9596 50.9648 11.8392 50.4242 11.7428C49.9573 11.6705 49.4658 11.5742 48.9989 11.5019L50.3259 10.5864ZM46.6399 13.0678C47.2542 13.1642 47.844 13.2364 48.4337 13.3328C49.515 13.5014 50.5962 13.6942 51.6774 13.911C52.7587 14.1278 53.8399 14.3446 54.8965 14.5855L54.6508 15.6937C53.5942 15.4528 52.5129 15.236 51.4563 15.0192C50.3996 14.8023 49.3184 14.6337 48.2372 14.4651C47.6228 14.3687 47.0085 14.2723 46.3942 14.2001L45.9027 13.5737L46.4679 13.1882L46.6399 13.0678ZM48.1634 16.3442C48.6058 16.4164 49.0727 16.4887 49.515 16.561C50.031 16.6573 50.5471 16.7537 51.0877 16.8501C51.6037 16.9464 52.1198 17.0669 52.6604 17.1632C53.1764 17.2837 53.717 17.3801 54.2331 17.5005L53.9873 18.6087C53.4713 18.4882 52.9552 18.3678 52.4392 18.2714C51.9232 18.1751 51.4071 18.0546 50.8911 17.9582C50.375 17.8619 49.859 17.7655 49.343 17.6692L49.2447 17.6451L48.1634 16.3442Z" fill="#AF9778"/>
<path d="M34.9452 12.0799L36.739 9.1167L37.0831 9.14079C37.2305 9.14079 37.5254 9.16488 37.9431 9.18897C38.2626 9.21306 38.5329 9.21306 38.8032 9.23715C39.4175 9.28534 39.9827 9.30943 40.4988 9.35761C41.0148 9.40579 41.58 9.45397 42.1943 9.50215C42.8087 9.55034 43.3739 9.62261 43.8899 9.67079C44.4305 9.71897 44.9957 9.79124 45.5855 9.86352C46.1261 9.93579 46.6913 10.0081 47.2565 10.0803C47.8954 10.1767 48.436 10.249 48.9274 10.3212C49.3943 10.3935 49.8612 10.4658 50.3281 10.5622L48.9766 11.4776L46.6421 13.0435L46.4947 13.1399L45.9295 13.5253L46.421 14.1517L48.1657 16.344L49.2223 17.669C48.7309 17.5726 48.2394 17.5003 47.7725 17.4281C47.1827 17.3317 46.6667 17.2594 46.1998 17.1872C45.7083 17.1149 45.1923 17.0426 44.6271 16.9703C44.1356 16.8981 43.6196 16.8499 43.0544 16.7776C42.4892 16.7053 41.9486 16.6572 41.4817 16.609C41.0148 16.5608 40.4742 16.5126 39.909 16.4644C39.3438 16.4162 38.8278 16.3922 38.3363 16.344C37.8694 16.3199 37.3288 16.2958 36.7636 16.2717L36.4196 16.2476L34.6257 12.634L34.9452 12.0799ZM47.3056 11.2367L47.0599 11.2126C46.5438 11.1403 45.9786 11.0681 45.3889 10.9958C44.8728 10.9235 44.3076 10.8753 43.7179 10.8031C43.1035 10.7308 42.5629 10.6826 42.0469 10.6344C41.5309 10.5862 40.9657 10.5381 40.3759 10.4899C39.7861 10.4417 39.221 10.3935 38.7049 10.3694C38.3855 10.3453 38.1152 10.3453 37.8694 10.3212C37.7711 10.3212 37.5991 10.2972 37.378 10.2972L36.2722 12.1522C37.0339 12.1762 37.8203 12.2244 38.6066 12.2726C39.7124 12.3449 40.7937 12.4172 41.8995 12.5376C42.9315 12.634 43.939 12.7544 44.9711 12.8749L47.3056 11.2367ZM44.7745 13.9349C43.767 13.8144 42.7595 13.694 41.7766 13.5976C40.6954 13.5012 39.6141 13.4049 38.5329 13.3326C37.7711 13.2844 36.9848 13.2362 36.223 13.2122L37.1568 15.1635C37.55 15.1876 37.9677 15.2117 38.41 15.2358C38.9752 15.2599 39.5158 15.3081 40.0073 15.3562C40.4988 15.4044 41.0148 15.4285 41.6046 15.5008C42.1943 15.549 42.7104 15.6212 43.2018 15.6694C43.6933 15.7176 44.2339 15.7899 44.7991 15.8622C45.2906 15.9344 45.8312 16.0067 46.3964 16.079L46.5438 16.1031L44.7745 13.9349Z" fill="white"/>
<path d="M48.2379 34.1952C49.1471 34.1952 49.9826 33.8339 50.5724 33.2557C51.1621 32.6775 51.5307 31.8584 51.5307 30.9671C51.5307 30.0757 51.1621 29.2566 50.5478 28.6784C49.958 28.1002 49.1225 27.7389 48.1887 27.7389H45.0188V34.2193L48.2379 34.1952ZM51.4078 34.0507C50.5969 34.8457 49.4911 35.3275 48.2625 35.3275H43.913V26.5825H48.2379C49.4911 26.5825 50.5969 27.0643 51.4078 27.8593C52.2188 28.6543 52.7348 29.7384 52.7348 30.943C52.7102 32.1716 52.2188 33.2557 51.4078 34.0507Z" fill="white"/>
<path d="M55.4383 26.5825V34.1952H62.7366V35.3275H54.2833V26.5825H55.4383Z" fill="white"/>
<path d="M65.0447 35.3276V32.4608L59.8843 26.5826L60.7689 25.8599L62.2679 27.5944L65.6099 31.4008L68.657 27.9317L70.4754 25.8599L71.3355 26.5826L66.1996 32.4608V35.3276H65.0447Z" fill="white"/>
<path d="M2.11377 27.7151V30.3892H7.0776L9.2892 27.7151H2.11377ZM2.11377 31.5215V34.1956H9.2892L7.0776 31.5215H2.11377ZM0.983398 34.7738V30.9915V26.6069H11.722L8.10968 30.9674L11.722 35.3278H0.983398V34.7738Z" fill="white"/>
<path d="M12.9515 35.3275V26.5825H22.1666L19.7092 30.943L22.1666 35.3034L21.1836 35.8816L18.7017 31.4971H14.1065V35.3034L12.9515 35.3275ZM14.1065 27.7148V30.3889H18.7017L20.2007 27.7148H14.1065Z" fill="white"/>
<path d="M31.8692 35.3275H23.7108V26.5825H31.7217V27.7148H24.8658V30.3889H29.7067V31.5212H24.8658V34.1952H31.8692V35.3275Z" fill="white"/>
<path d="M34.5233 30.3889H40.1752L39.5854 27.7148H34.5233V30.3889ZM40.4455 31.5212H34.5479V35.3275H33.3929V26.5825H40.5192L42.4605 35.3275L41.3301 35.5684L40.4455 31.5212Z" fill="white"/>
</svg>
