<svg width="16" height="15" viewBox="0 0 16 15" fill="none" xmlns="http://www.w3.org/2000/svg">
<path d="M7.99999 7.50005C8.95477 7.50005 9.87044 7.12076 10.5456 6.44563C11.2207 5.7705 11.6 4.85483 11.6 3.90005C11.6 2.94527 11.2207 2.02959 10.5456 1.35446C9.87044 0.679333 8.95477 0.300049 7.99999 0.300049C7.04521 0.300049 6.12953 0.679333 5.4544 1.35446C4.77927 2.02959 4.39999 2.94527 4.39999 3.90005C4.39999 4.85483 4.77927 5.7705 5.4544 6.44563C6.12953 7.12076 7.04521 7.50005 7.99999 7.50005ZM10.4 3.90005C10.4 4.21529 10.3379 4.52744 10.2173 4.81868C10.0966 5.10992 9.9198 5.37455 9.6969 5.59746C9.47399 5.82037 9.20936 5.99718 8.91812 6.11782C8.62688 6.23846 8.31473 6.30055 7.99949 6.30055C7.68425 6.30055 7.3721 6.23846 7.08086 6.11782C6.78961 5.99718 6.52498 5.82037 6.30208 5.59746C6.07917 5.37455 5.90235 5.10992 5.78171 4.81868C5.66108 4.52744 5.59899 4.21529 5.59899 3.90005C5.59899 3.26353 5.85184 2.65308 6.30193 2.20299C6.75202 1.75291 7.36247 1.50005 7.99899 1.50005C8.63551 1.50005 9.24596 1.75291 9.69604 2.20299C10.1461 2.65308 10.399 3.26353 10.399 3.90005H10.4ZM15.2 13.5C15.2 14.7 14 14.7 14 14.7H1.99999C1.99999 14.7 0.799988 14.7 0.799988 13.5C0.799988 12.3 1.99999 8.70005 7.99999 8.70005C14 8.70005 15.2 12.3 15.2 13.5ZM14 13.495C13.999 13.2 13.815 12.312 13.001 11.498C12.22 10.716 10.747 9.90005 7.99999 9.90005C5.25199 9.90005 3.77999 10.716 2.99799 11.498C2.18499 12.312 2.00199 13.2 1.99999 13.495H14Z" fill="white"/>
</svg>
